<svg xmlns="http://www.w3.org/2000/svg" width="800" height="600" viewBox="0 0 800 600">
  <defs>
    <linearGradient id="sky" x1="0" y1="0" x2="0" y2="1">
      <stop offset="0%" stop-color="#9dd6ff"/>
      <stop offset="100%" stop-color="#dff3ff"/>
    </linearGradient>
    <linearGradient id="land" x1="0" y1="0" x2="0" y2="1">
      <stop offset="0%" stop-color="#a6cf6a"/>
      <stop offset="100%" stop-color="#6f9f3b"/>
    </linearGradient>
  </defs>
  <rect width="800" height="600" fill="url(#sky)"/>
  <circle cx="650" cy="90" r="48" fill="#ffe08c"/>
  <path d="M0 360 C130 300, 280 420, 420 360 C560 300, 670 400, 800 350 L800 600 L0 600 Z" fill="url(#land)"/>
  <path d="M120 600 L260 360 L400 600 Z" fill="#5f7f32" opacity="0.5"/>
  <path d="M360 600 L520 330 L700 600 Z" fill="#55762a" opacity="0.45"/>
  <rect x="328" y="330" width="144" height="98" rx="8" fill="#f4ede3"/>
  <path d="M310 334 L400 268 L490 334 Z" fill="#b64f3f"/>
  <rect x="350" y="360" width="36" height="68" fill="#8a5b3a"/>
  <rect x="402" y="360" width="54" height="40" fill="#8fc0df"/>
  <text x="34" y="560" fill="#1f4d2e" font-size="40" font-family="Arial, sans-serif" font-weight="700">Fresh Farm Produce</text>
</svg>
